# xmcd
#
# Track frame offsets: 
#        150
#        24547
#        48364
#        65032
#        78668
#        96759
#        109673
#        123954
#        140791
#        154673
#        168131
#        187500
#
# Disc length: 2766 seconds
#
# Revision: 0
# Processed by: cddbd v1.5.2PL0 Copyright (c) Steve Scherf et al.
# Submitted via: ExactAudioCopy v0.99pb5
#
DISCID=960acc0c
DTITLE=Агата Кристи - Эпилог
DYEAR=2010
DGENRE=
TTITLE0=Эпилог
TTITLE1=Письмо
TTITLE2=Небытие
TTITLE3=Подвиг
TTITLE4=Пароль
TTITLE5=В такси
TTITLE6=Алхимик
TTITLE7=Билеты проданы
TTITLE8=Разные люди
TTITLE9=Последнее желание
TTITLE10=Сердцебиение
TTITLE11=Дорога
EXTD=
EXTT0=
EXTT1=
EXTT2=
EXTT3=
EXTT4=
EXTT5=
EXTT6=
EXTT7=
EXTT8=
EXTT9=
EXTT10=
EXTT11=
PLAYORDER=
